<?xml version="1.0" encoding="UTF-8"?>
<!DOCTYPE svg PUBLIC "-//W3C//DTD SVG 1.1//EN" "http://www.w3.org/Graphics/SVG/1.1/DTD/svg11.dtd">
<!-- Creator: CorelDRAW 2019 (64-Bit) -->
<svg xmlns="http://www.w3.org/2000/svg" xml:space="preserve" width="2.98104in" height="2.39778in" version="1.1" shape-rendering="geometricPrecision" text-rendering="geometricPrecision" image-rendering="optimizeQuality" fill-rule="evenodd" clip-rule="evenodd"
viewBox="0 0 56628.08 45548.35"
 xmlns:xlink="http://www.w3.org/1999/xlink"
 xmlns:xodm="http://www.corel.com/coreldraw/odm/2003">
 <g id="Layer_x0020_1">
  <metadata id="CorelCorpID_0Corel-Layer"/>
  <path fill="#FFCC00" d="M918.54 34748.63l54790.92 0c505.79,0 918.62,413.35 918.62,919.14l0 8961.44c0,505.79 -412.83,919.14 -918.62,919.14l-54790.92 0c-505.19,0 -918.54,-413.35 -918.54,-919.14l0 -8961.44c0,-505.79 413.35,-919.14 918.54,-919.14zm11587.69 -11733.22l0 1264.44c-4305.61,-1021.45 -7510.63,-4891.64 -7510.63,-9509.86 0,-5397.88 4376.5,-9774.38 9774.38,-9774.38 5397.95,0 9773.79,4376.5 9773.79,9774.38 0,4611.64 -3194.48,8477.34 -7491.19,9505.45l-145.54 34.33 0 -1294.35 -4400.81 0zm1060.79 -813.91c282.77,-4.49 676.16,-5.01 1080.16,-5.01 444.31,0 889.23,0 1199.07,5.01 310.97,4.41 486.42,13.84 634.72,-45.99 147.71,-60.8 267.81,-189.74 333.1,-407.82 64.69,-218.01 74.11,-522.84 46.44,-962.82 -28.19,-440.43 -92.96,-1014.27 -14.36,-1481.32 78.53,-468.1 301.54,-829.47 740.92,-1301.46 439.9,-472.58 1097.29,-1055.78 1472.5,-1759.61 375.14,-703.9 467.57,-1527.84 407.22,-2310.27 -59.76,-782.95 -273.35,-1523.35 -768.59,-2222.24 -2130.4,-3009.08 -5852.22,-3009.08 -7982.62,0 -495.77,698.89 -709.36,1439.29 -769.12,2222.24 -59.76,782.43 32.08,1606.37 407.22,2310.27 375.21,703.83 1033.12,1287.02 1472.5,1759.61 439.38,471.99 662.32,833.36 741.45,1301.46 78.08,467.05 13.31,1040.9 -14.36,1481.32 -27.67,439.98 -18.25,744.81 46.44,962.82 64.77,218.08 184.88,347.02 333.18,407.82 148.3,59.83 323.68,50.41 634.13,45.99zm-4438.43 20353.26l865.97 0 0 -4798.08 -865.97 0 0 4798.08zm1935.06 0l873.22 0 0 -3373.23 2534.33 3373.23 866.49 0 0 -4798.08 -866.49 0 0 3373.23 -2534.33 -3373.23 -873.22 0 0 4798.08zm8981.41 -4798.08l-1522.83 3638.8 -1522.23 -3638.8 -963.94 0 2004.76 4798.08 970.6 0 2004.24 -4798.08 -970.6 0zm5216.97 796.27l0 -796.27 -3610.6 0 0 4798.08 3610.6 0 0 -796.27 -2737.38 0 0 -1250 2478.99 0 0 -796.27 -2478.99 0 0 -1159.28 2737.38 0zm4763.23 4001.82l-1201.32 -1704.34c691.71,-216.36 1159.28,-775.25 1159.28,-1501.21 0,-935.74 -768.07,-1592.53 -1794.53,-1592.53l-2088.37 0 0 4798.08 873.22 0 0 -1613.02 928.49 0 1131.61 1613.02 991.61 0zm-3051.71 -3995.16l1117.18 0c593.74,0 1005.45,300.42 1005.45,789.61 0,488.59 -411.71,789.09 -1005.45,789.09l-1117.18 0 0 -1578.69zm5091.33 3995.16l866.04 0 0 -4001.82 1536.66 0 0 -796.27 -3939.29 0 0 796.27 1536.59 0 0 4001.82zm6760.81 -4001.82l0 -796.27 -3611.13 0 0 4798.08 3611.13 0 0 -796.27 -2737.9 0 0 -1250 2479.51 0 0 -796.27 -2479.51 0 0 -1159.28 2737.9 0zm4762.71 4001.82l-1201.32 -1704.34c691.71,-216.36 1159.28,-775.25 1159.28,-1501.21 0,-935.74 -768.07,-1592.53 -1794.53,-1592.53l-2088.37 0 0 4798.08 873.22 0 0 -1613.02 928.49 0 1131.61 1613.02 991.61 0zm-3051.71 -3995.16l1117.18 0c593.74,0 1006.04,300.42 1006.04,789.61 0,488.59 -412.3,789.09 -1006.04,789.09l-1117.18 0 0 -1578.69zm5573.33 4072.04c1145.45,0 1801.71,-607.58 1801.71,-1466.89 0,-873.22 -670.1,-1194.14 -1668.89,-1417.68 -761.41,-174.85 -1117.78,-314.33 -1117.78,-705.02 0,-335.87 328.09,-628.59 810.1,-628.59 474.75,0 956.76,202 1376.17,565.54l474.75 -642.43c-481.93,-412.23 -1054.66,-670.7 -1815.55,-670.7 -1012.63,0 -1725.28,614.83 -1725.28,1452.53 0,900.89 691.11,1187.55 1683.25,1417.75 768.07,181.44 1110,314.26 1110,712.13 0,342.53 -307.08,635.77 -900.82,635.77 -628.59,0 -1138.27,-251.74 -1578.17,-649.61l-503.02 621.93c531.22,495.84 1229.59,775.25 2053.52,775.25zm-7208.49 -42224.93l-10644.76 29167.59 7036.4 0 2285.89 -7217.32 4855.59 0 4871.67 0 2285.36 7217.32 7036.4 0 -10644.76 -29167.59 -3413.09 0 -3668.71 0zm3540.9 7591.4l3299.04 9489.37 -3229.86 0 -3368.29 0 3299.11 -9489.37zm-12902.98 6771.88c0,-8156.87 -6612.51,-14769.98 -14769.46,-14769.98 -8156.87,0 -14769.98,6613.11 -14769.98,14769.98 0,8156.35 6613.11,14769.46 14769.98,14769.46 8156.95,0 14769.46,-6613.11 14769.46,-14769.46z"/>
 </g>
</svg>
